<?xml version="1.0" encoding="utf-8"?>
<!-- Generator: Adobe Illustrator 19.0.0, SVG Export Plug-In . SVG Version: 6.00 Build 0)  -->
<svg version="1.1" id="Capa_1" xmlns="http://www.w3.org/2000/svg" xmlns:xlink="http://www.w3.org/1999/xlink" x="0px" y="0px"
	 viewBox="-49 141 512 512" style="enable-background:new -49 141 512 512;" xml:space="preserve">
<style type="text/css">
	.st0{fill:#FFFFFF;}
</style>
<g>
	<g>
		<path class="st0" d="M207,141c-99.4,0-180.3,82.1-180.3,183.1v145.8c0,101,80.9,183.1,180.3,183.1c99.4,0,180.3-81.9,180.3-182.5
			V324.1C387.3,223.1,306.4,141,207,141z M353.4,470.5c0,82-65.7,148.6-146.4,148.6c-80.7,0-146.4-66.9-146.4-149.2V324.1
			c0-82.3,65.7-149.2,146.4-149.2c80.7,0,146.4,66.9,146.4,149.2V470.5z"/>
	</g>
</g>
<g>
	<g>
		<path class="st0" d="M207,281.1c-9.4,0-17,7.6-17,17v59.3c0,9.4,7.6,17,17,17c9.4,0,17-7.6,17-17v-59.3
			C224,288.7,216.4,281.1,207,281.1z"/>
	</g>
</g>
</svg>
